PathFileType	4	(X/Y/Z)	D:\Share\Shared_Data\Ergonomics\Sit To Stand Pertubation\S3\Unperturbed.trc
DataRate	CameraRate	NumFrames	NumMarkers	Units	OrigDataRate	OrigDataStartFrame	OrigNumFrames	
100	100	12	18	m	100	3596	231
Frame#	Time	R_Thigh			R_ASIS			R_Pelvis			V_Sacral			L_Pelvis			L_ASIS			Clavical			R_Acromium			L_Acromium			Sternum			Torso			R_Thigh_Med			R_Thigh_Lat			R_Shank_Med			R_Shank_Lat			R_Shank			R_Heel			R_Toe			
		X1	Y1	Z1	X2	Y2	Z2	X3	Y3	Z3	X4	Y4	Z4	X5	Y5	Z5	X6	Y6	Z6	X7	Y7	Z7	X8	Y8	Z8	X9	Y9	Z9	X10	Y10	Z10	X11	Y11	Z11	X12	Y12	Z12	X13	Y13	Z13	X14	Y14	Z14	X15	Y15	Z15	X16	Y16	Z16	X17	Y17	Z17	X18	Y18	Z18	

3596	35.95	0.23438406	0.60188678	0.11565157	0.12965292	0.65587305	0.14042572	0.03234914	0.71029761	0.19705432	-0.058498608	0.76594067	0.002173429	0.0479566	0.72673071	-0.20314467	0.13741464	0.65966638	-0.14457837	0.35288031	0.98279822	-0.00063079566	0.35050479	1.0662438	0.15692694	0.37099429	1.0578846	-0.14375455	0.33278665	0.90140417	0.0058843851	0.34975775	0.96561316	-0.059790752	0.38947836	0.45748376	0.096841339	0.36176041	0.43019189	0.20566609	0.2631394	0.1056722	0.093216606	0.23666698	0.097632431	0.17167719	0.28025436	0.26492688	0.20160529	0.18044241	0.05007024	0.1198559	0.39935767	0.049822578	0.13849399
3597	35.96	0.23998584	0.60363641	0.11557267	0.13493323	0.66090521	0.14007748	0.037796391	0.71553937	0.19659673	-0.052538509	0.77150781	0.00090528995	0.053948868	0.73175433	-0.20331871	0.14299863	0.66458801	-0.14436862	0.35845718	0.98859467	-0.0010022424	0.35623553	1.0719478	0.15655466	0.37661407	1.0638237	-0.14414087	0.33870688	0.90733478	0.0056969485	0.35517831	0.97149438	-0.060228859	0.39288977	0.45646887	0.096501411	0.3646972	0.42957733	0.20503043	0.26343533	0.10557904	0.09346608	0.23685535	0.097716492	0.1716265	0.28180341	0.26490515	0.20132677	0.18051007	0.050048496	0.1197896	0.39949377	0.049668289	0.13848024
3598	35.97	0.24542784	0.60546759	0.11561858	0.14017563	0.66628119	0.13970082	0.043262299	0.72108862	0.19615253	-0.046619507	0.77724091	-0.0002413296	0.059947601	0.73708234	-0.2035239	0.14852173	0.6698338	-0.14415292	0.36379257	0.99495856	-0.0013930489	0.36164581	1.0781681	0.1561998	0.38185562	1.070348	-0.14457433	0.34436325	0.9137702	0.0054439569	0.36037558	0.97791846	-0.060715149	0.39605646	0.45551212	0.096159416	0.3674017	0.42904404	0.20442628	0.26374048	0.1054786	0.093785942	0.23700873	0.097800781	0.17160672	0.28326303	0.26488751	0.20109792	0.18059406	0.050179745	0.11985178	0.39964615	0.049477196	0.13844751
3599	35.98	0.25070644	0.60738232	0.11578101	0.14538786	0.67200244	0.13930115	0.048773022	0.72693677	0.19574713	-0.040746082	0.7831391	-0.0012357309	0.065950157	0.74271912	-0.20377145	0.15397404	0.67540314	-0.14394229	0.36890561	1.0018569	-0.0018087997	0.36675958	1.0848751	0.1558595	0.38678098	1.0774756	-0.14501071	0.34977121	0.92069104	0.0051261182	0.36536655	0.98485321	-0.061251282	0.39895795	0.45462347	0.095819557	0.36984222	0.42859827	0.20385739	0.26403271	0.10538963	0.094122894	0.23711897	0.097887344	0.17161232	0.28461365	0.26488196	0.20091342	0.18068962	0.050403515	0.11999287	0.39981	0.049249989	0.13839259
3600	35.99	0.25585466	0.60939441	0.11603705	0.15057872	0.67806641	0.13888699	0.054339584	0.73306708	0.19538814	-0.034924255	0.78922955	-0.0020326717	0.071940331	0.74866248	-0.20406316	0.1593483	0.68129755	-0.14374852	0.37381049	1.0092574	-0.0022533164	0.37159137	1.0920425	0.15553275	0.39143573	1.085196	-0.14542325	0.35494385	0.92807672	0.0047443376	0.37016354	0.99227026	-0.061835457	0.40158075	0.45381641	0.095476791	0.37200015	0.42824594	0.20332034	0.26428629	0.10533393	0.094410759	0.23718742	0.097973923	0.17164104	0.28583817	0.26489999	0.20076173	0.18078963	0.050663033	0.12016569	0.39997787	0.048998123	0.13831935
3601	36	0.26093002	0.61152521	0.11635316	0.15575848	0.6844646	0.13846751	0.059957603	0.73945825	0.19506589	-0.029160526	0.79555096	-0.0025920012	0.077890419	0.75490417	-0.20439101	0.16464122	0.68751807	-0.14358434	0.37851746	1.017131	-0.0027276261	0.37614542	1.0996482	0.15522021	0.39582892	1.0934443	-0.14582918	0.35989017	0.93590271	0.004300168	0.37477719	1.0001476	-0.062461636	0.40391458	0.45310342	0.09510965	0.37387021	0.42799249	0.20280275	0.2644787	0.10533028	0.094588158	0.23722165	0.098055397	0.17169609	0.2869231	0.26495438	0.20062726	0.18088593	0.050918594	0.12033659	0.40014127	0.048742725	0.13823892
3602	36.01	0.26598248	0.61378802	0.11669157	0.16093817	0.69118225	0.13804974	0.065608124	0.74608862	0.19476089	-0.023462454	0.80212183	-0.0029245059	0.083765198	0.76143011	-0.20474025	0.16985477	0.69406219	-0.14346364	0.38303326	1.0254539	-0.0032292016	0.3804173	1.1076744	0.15492468	0.39993491	1.1021338	-0.14627304	0.36461447	0.94414221	0.0037936513	0.37921844	1.0084689	-0.063119656	0.40595898	0.45249591	0.094701561	0.375457	0.42784204	0.20228439	0.26459445	0.10539219	0.094605751	0.23723151	0.098128227	0.171782	0.28785925	0.26505801	0.20049242	0.1809722	0.051150925	0.12048828	0.40029269	0.04850576	0.13816423
3603	36.02	0.27103473	0.61617969	0.11701649	0.16612804	0.69820001	0.13763548	0.07126152	0.75293878	0.19445078	-0.01783663	0.80894751	-0.0030912063	0.089528236	0.76822174	-0.2050939	0.17499635	0.700922	-0.14340131	0.3873623	1.0342072	-0.0037517023	0.38439709	1.1161071	0.15465091	0.40371973	1.1111992	-0.14679137	0.36911673	0.95276996	0.003221591	0.38349954	1.0172218	-0.063795841	0.40772861	0.45200629	0.094262421	0.37677029	0.42779791	0.20174115	0.26463123	0.10552033	0.094449158	0.23722829	0.09819294	0.1718979	0.28864215	0.26522266	0.20033932	0.18104601	0.051355297	0.12061469	0.40042746	0.04830048	0.13810324
3604	36.03	0.27608411	0.61868347	0.11729852	0.17133594	0.70549585	0.13721959	0.076885063	0.75999274	0.19411296	-0.012284884	0.81604358	-0.0031783249	0.095148338	0.77525677	-0.20543629	0.18007779	0.70808307	-0.14341252	0.39150702	1.043376	-0.0042858233	0.38807404	1.1249325	0.15440463	0.40716129	1.1206031	-0.14739911	0.3733941	0.96176239	0.0025772734	0.38763342	1.0263954	-0.064475098	0.40924002	0.45164252	0.093809868	0.37782068	0.427862	0.20114946	0.26460461	0.10569543	0.094160706	0.23722298	0.098253273	0.17203513	0.28927066	0.26545648	0.20015182	0.18110815	0.051534725	0.12071545	0.40054425	0.048128925	0.13805678
3605	36.04	0.28110605	0.62127277	0.1175172	0.17656624	0.71304871	0.13679022	0.08244915	0.76723541	0.19372694	-0.0068037453	0.82342413	-0.0032680979	0.10060516	0.78250946	-0.20575555	0.18511383	0.71552484	-0.14351138	0.39546906	1.0529463	-0.0048208485	0.39144067	1.1341354	0.1541917	0.41025479	1.1303223	-0.14809215	0.37744522	0.9711001	0.0018509992	0.39163092	1.0359764	-0.065143822	0.41048846	0.45139728	0.093327805	0.37861676	0.42803427	0.20049126	0.26454141	0.10588587	0.093818459	0.23722545	0.098315033	0.1721777	0.28974496	0.26576138	0.19991757	0.18116116	0.051695263	0.12079278	0.40064474	0.047985718	0.13802086
3606	36.05	0.286056	0.6239162	0.11766258	0.18182062	0.72084033	0.13633365	0.087930428	0.77465234	0.19327855	-0.0013870313	0.83107977	-0.0034187012	0.10589298	0.78995038	-0.20604562	0.1901207	0.7232226	-0.14370941	0.39924857	1.0629014	-0.0053458147	0.394495	1.1436964	0.15401685	0.4130101	1.140338	-0.14885127	0.38127512	0.98076898	0.0010325822	0.39549799	1.0459467	-0.065791901	0.41144217	0.45124622	0.092760468	0.37916489	0.42831216	0.19975656	0.26446597	0.10606397	0.093490791	0.237244	0.098384766	0.17230588	0.29006445	0.2661337	0.199629	0.18120815	0.051843208	0.12084991	0.40073187	0.047863201	0.13799005
3607	36.06	0.29088113	0.62658331	0.11773533	0.1871004	0.72885406	0.13584181	0.093314262	0.78222729	0.19276169	0.0039716992	0.83897711	-0.0036627991	0.1110223	0.79754663	-0.20630728	0.19511522	0.73114844	-0.14401433	0.40284415	1.0732216	-0.0058502364	0.39724063	1.153592	0.15388145	0.41544226	1.1506322	-0.14965018	0.38489883	0.99075879	0.00011760604	0.39923553	1.0562821	-0.066412544	0.41206311	0.45116171	0.09205822	0.37947046	0.42869217	0.19894342	0.26439328	0.10621467	0.093213905	0.23728284	0.098466721	0.17240482	0.29022815	0.26656683	0.1992836	0.18125166	0.051983582	0.12089037	0.40080835	0.047755428	0.13795992
